<svg width="16" height="16" viewBox="0 0 16 16" fill="none" xmlns="http://www.w3.org/2000/svg">
<path d="M14.1 4.11335C13.8266 3.96669 13.2533 3.81335 12.4733 4.36002L11.4933 5.05335C11.42 2.98002 10.52 2.16669 8.33329 2.16669H4.33329C2.05329 2.16669 1.16663 3.05335 1.16663 5.33335V10.6667C1.16663 12.2 1.99996 13.8334 4.33329 13.8334H8.33329C10.52 13.8334 11.42 13.02 11.4933 10.9467L12.4733 11.64C12.8866 11.9334 13.2466 12.0267 13.5333 12.0267C13.78 12.0267 13.9733 11.9534 14.1 11.8867C14.3733 11.7467 14.8333 11.3667 14.8333 10.4134V5.58669C14.8333 4.63335 14.3733 4.25335 14.1 4.11335ZM7.33329 7.58669C6.64663 7.58669 6.07996 7.02669 6.07996 6.33335C6.07996 5.64002 6.64663 5.08002 7.33329 5.08002C8.01996 5.08002 8.58663 5.64002 8.58663 6.33335C8.58663 7.02669 8.01996 7.58669 7.33329 7.58669Z" fill="white"/>
</svg>
