<svg width="13" height="13" viewBox="0 0 13 13" fill="none" xmlns="http://www.w3.org/2000/svg">
<path d="M5.59551 8.98782H2.18262" stroke="#939AA6" stroke-width="1.5" stroke-linecap="round" stroke-linejoin="round"/>
<path d="M7.11768 3.7377H10.5306" stroke="#939AA6" stroke-width="1.5" stroke-linecap="round" stroke-linejoin="round"/>
<path fill-rule="evenodd" clip-rule="evenodd" d="M4.7267 3.70839C4.7267 3.00657 4.15353 2.4375 3.44666 2.4375C2.7398 2.4375 2.16663 3.00657 2.16663 3.70839C2.16663 4.4102 2.7398 4.97927 3.44666 4.97927C4.15353 4.97927 4.7267 4.4102 4.7267 3.70839Z" stroke="#939AA6" stroke-width="1.5" stroke-linecap="round" stroke-linejoin="round"/>
<path fill-rule="evenodd" clip-rule="evenodd" d="M10.8333 8.96663C10.8333 8.26481 10.2605 7.69574 9.55367 7.69574C8.84636 7.69574 8.27319 8.26481 8.27319 8.96663C8.27319 9.66844 8.84636 10.2375 9.55367 10.2375C10.2605 10.2375 10.8333 9.66844 10.8333 8.96663Z" stroke="#939AA6" stroke-width="1.5" stroke-linecap="round" stroke-linejoin="round"/>
</svg>
